<?xml version="1.0" encoding="utf-8"?>
<!-- Generator: Adobe Illustrator 19.0.0, SVG Export Plug-In . SVG Version: 6.00 Build 0)  -->
<svg version="1.1" id="레이어_1" xmlns="http://www.w3.org/2000/svg" xmlns:xlink="http://www.w3.org/1999/xlink" x="0px"
	 y="0px" viewBox="0 0 429.9 483.6" style="enable-background:new 0 0 429.9 483.6;" xml:space="preserve">
<style type="text/css">
	.st0{fill:#231F20;}
	.st1{clip-path:url(#XMLID_78_);fill:#231F20;}
	.st2{clip-path:url(#XMLID_78_);fill:#0091FF;}
</style>
<path id="XMLID_62_" class="st0" d="M42.1,427.4L39,410.3H21l-2.9,17.1h-15l16.6-82.2h20.2l17.3,82.2H42.1z M22.9,399h13.9
	l-7.2-39.4L22.9,399z"/>
<g id="XMLID_2_">
	<defs>
		<rect id="XMLID_3_" x="-736.1" y="-292.3" width="1920" height="1080"/>
	</defs>
	<clipPath id="XMLID_78_">
		<use xlink:href="#XMLID_3_"  style="overflow:visible;"/>
	</clipPath>
	<path id="XMLID_58_" class="st1" d="M65.5,345.2h31.3c9.5,0,14.2,4.3,14.2,12.9v17.7c0,5.5-1.8,8.8-5.5,10c3.7,1.2,5.5,4.3,5.5,9.4
		v19.3c0,8.6-4.7,12.9-14.2,12.9H65.5V345.2z M96.1,376.9v-17.2c0-1.4-0.3-2.3-0.8-2.8c-0.5-0.5-1.5-0.7-3-0.7H80.5v24.2h11.9
		c1.5,0,2.5-0.2,3-0.7C95.9,379.2,96.1,378.2,96.1,376.9 M96.1,413v-18.1c0-1.4-0.3-2.3-0.8-2.8c-0.5-0.5-1.5-0.7-3-0.7H80.5v25.2
		h11.9c1.5,0,2.5-0.2,3-0.7C95.9,415.3,96.1,414.3,96.1,413"/>
	<polygon id="XMLID_57_" class="st1" points="138,416 163,416 163,427.4 122.9,427.4 122.9,345.2 162,345.2 162,356.6 138,356.6 
		138,379.5 158.2,379.5 158.2,391.1 138,391.1 	"/>
	<path id="XMLID_54_" class="st1" d="M186.6,395.4v32.1h-15v-82.2h30.2c9.5,0,14.2,4.3,14.2,12.9v24.4c0,7.1-3.2,11.3-9.5,12.5
		l13.7,32.5h-16.2l-12.5-32.1H186.6z M186.6,356.6v27.6h10.8c1.4,0,2.3-0.2,2.9-0.7c0.5-0.5,0.8-1.4,0.8-2.8v-20.6
		c0-1.4-0.3-2.3-0.8-2.8c-0.5-0.5-1.5-0.7-2.9-0.7H186.6z"/>
	<path id="XMLID_53_" class="st1" d="M253.7,412.4v-17.6c0-1.4-0.3-2.3-0.8-2.8c-0.5-0.5-1.5-0.7-2.9-0.7h-10.6
		c-9,0-13.4-4.3-13.4-13v-20.2c0-8.6,4.7-12.9,14.1-12.9h14.3c9.4,0,14.1,4.3,14.1,12.9v11.5h-15.1v-9.4c0-1.4-0.3-2.3-0.8-2.8
		c-0.5-0.5-1.5-0.7-2.9-0.7h-5c-1.5,0-2.5,0.2-3,0.7c-0.5,0.5-0.8,1.4-0.8,2.8v16.6c0,1.4,0.3,2.3,0.8,2.8c0.5,0.5,1.5,0.7,3,0.7
		h10.3c9.1,0,13.7,4.3,13.7,12.8v21.5c0,8.6-4.7,12.9-14.2,12.9h-14.1c-9.5,0-14.2-4.3-14.2-12.9v-11.3h15v9.3
		c0,1.4,0.3,2.3,0.8,2.8c0.5,0.5,1.5,0.7,3,0.7h5c1.4,0,2.3-0.2,2.9-0.7C253.4,414.8,253.7,413.8,253.7,412.4"/>
	<polygon id="XMLID_52_" class="st1" points="317.8,345.2 317.8,356.6 303.4,356.6 303.4,427.4 288.4,427.4 288.4,356.6 274,356.6 
		274,345.2 	"/>
	<path id="XMLID_49_" class="st1" d="M358.5,427.4l-3.1-17.1h-18l-2.9,17.1h-15l16.6-82.2h20.2l17.3,82.2H358.5z M339.3,399h13.9
		l-7.2-39.4L339.3,399z"/>
	<polygon id="XMLID_48_" class="st1" points="412.7,345.2 426.4,345.2 426.4,427.4 412.3,427.4 394.7,372.9 394.7,427.4 
		380.9,427.4 380.9,345.2 395.4,345.2 412.7,398.9 	"/>
	<path id="XMLID_45_" class="st1" d="M13,480.5l-1-6H7.2l-0.9,6H3.6l3.7-23.8h4.2l4.1,23.8H13z M7.5,472.2h4.2l-2.2-13.6L7.5,472.2z
		"/>
	<path id="XMLID_41_" class="st1" d="M29.9,456.7h7.5c2,0,3,1,3,3v6.8c0,1.2-0.5,1.8-1.4,1.9c0.9,0.2,1.4,0.7,1.4,1.8v7.3
		c0,2-1,3-3,3h-7.5V456.7z M37.8,466v-5.9c0-0.5-0.1-0.8-0.2-1c-0.2-0.1-0.5-0.2-1-0.2h-4.1v8.2h4.1c0.5,0,0.8-0.1,1-0.2
		C37.7,466.9,37.8,466.5,37.8,466 M37.8,477v-6.4c0-0.5-0.1-0.8-0.2-1c-0.2-0.2-0.5-0.2-1-0.2h-4.1v8.7h4.1c0.5,0,0.8-0.1,1-0.2
		C37.7,477.9,37.8,477.5,37.8,477"/>
	<polygon id="XMLID_40_" class="st1" points="58.7,478.2 65.2,478.2 65.2,480.5 56,480.5 56,456.7 64.9,456.7 64.9,459 58.7,459 
		58.7,467 63.8,467 63.8,469.2 58.7,469.2 	"/>
	<path id="XMLID_37_" class="st1" d="M82.3,470.5v9.9h-2.6v-23.8h6.9c2,0,3,1,3,3v7.8c0,1.8-0.8,2.8-2.4,3l3.6,10H88l-3.5-9.9H82.3z
		 M82.3,459v9.3h3.6c0.5,0,0.8-0.1,1-0.2c0.1-0.1,0.2-0.5,0.2-1v-6.9c0-0.5-0.1-0.8-0.2-1c-0.1-0.1-0.5-0.2-1-0.2H82.3z"/>
	<polygon id="XMLID_36_" class="st1" points="113.5,456.7 113.5,459 109.7,459 109.7,480.5 107.1,480.5 107.1,459 103.3,459 
		103.3,456.7 	"/>
	<path id="XMLID_35_" class="st1" d="M134.6,456.7h2.6v20.7c0,2-1,3-3,3h-3.9c-2,0-3-1-3-3v-20.7h2.6V477c0,0.5,0.1,0.8,0.2,1
		c0.2,0.1,0.5,0.2,1,0.2h2.4c0.5,0,0.8-0.1,1-0.2c0.2-0.1,0.2-0.5,0.2-1V456.7z"/>
	<path id="XMLID_32_" class="st1" d="M155.5,470.5v9.9h-2.6v-23.8h6.9c2,0,3,1,3,3v7.8c0,1.8-0.8,2.8-2.4,3l3.6,10h-2.8l-3.5-9.9
		H155.5z M155.5,459v9.3h3.6c0.5,0,0.8-0.1,1-0.2c0.1-0.1,0.2-0.5,0.2-1v-6.9c0-0.5-0.1-0.8-0.2-1c-0.1-0.1-0.5-0.2-1-0.2H155.5z"/>
	<path id="XMLID_29_" class="st1" d="M186.2,480.5l-1-6h-4.8l-0.9,6h-2.6l3.7-23.8h4.2l4.1,23.8H186.2z M180.7,472.2h4.2l-2.2-13.6
		L180.7,472.2z"/>
	<path id="XMLID_28_" class="st1" d="M209.3,477v-6.5c0-0.5-0.1-0.8-0.2-1c-0.2-0.1-0.5-0.2-1-0.2h-2.6c-2,0-3-1-3-3v-6.6
		c0-2,1-3,3-3h3.4c2,0,3,1,3,3v3.7h-2.6v-3.2c0-0.5-0.1-0.8-0.2-1c-0.1-0.1-0.5-0.2-1-0.2h-1.8c-0.5,0-0.8,0.1-1,0.2
		c-0.1,0.1-0.2,0.5-0.2,1v5.8c0,0.5,0.1,0.8,0.2,1c0.1,0.2,0.5,0.2,1,0.2h2.6c2,0,3,1,3,3v7.3c0,2-1,3-3,3h-3.3c-2,0-3-1-3-3v-3.7
		h2.6v3.2c0,0.5,0.1,0.8,0.2,1c0.1,0.1,0.5,0.2,1,0.2h1.7c0.5,0,0.8-0.1,1-0.2C209.3,477.9,209.3,477.5,209.3,477"/>
	<path id="XMLID_27_" class="st1" d="M250,477v-6.5c0-0.5-0.1-0.8-0.2-1c-0.2-0.1-0.5-0.2-1-0.2h-2.6c-2,0-3-1-3-3v-6.6c0-2,1-3,3-3
		h3.4c2,0,3,1,3,3v3.7H250v-3.2c0-0.5-0.1-0.8-0.2-1c-0.1-0.1-0.5-0.2-1-0.2H247c-0.5,0-0.8,0.1-1,0.2c-0.1,0.1-0.2,0.5-0.2,1v5.8
		c0,0.5,0.1,0.8,0.2,1c0.1,0.2,0.5,0.2,1,0.2h2.6c2,0,3,1,3,3v7.3c0,2-1,3-3,3h-3.3c-2,0-3-1-3-3v-3.7h2.6v3.2c0,0.5,0.1,0.8,0.2,1
		c0.1,0.1,0.5,0.2,1,0.2h1.7c0.5,0,0.8-0.1,1-0.2C249.9,477.9,250,477.5,250,477"/>
	<polygon id="XMLID_26_" class="st1" points="276.2,456.7 276.2,459 272.4,459 272.4,480.5 269.8,480.5 269.8,459 266,459 
		266,456.7 	"/>
	<path id="XMLID_23_" class="st1" d="M297.9,480.5l-1-6h-4.8l-0.9,6h-2.6l3.7-23.8h4.2l4.1,23.8H297.9z M292.4,472.2h4.2l-2.2-13.6
		L292.4,472.2z"/>
	<polygon id="XMLID_22_" class="st1" points="322.6,456.7 325,456.7 325,480.5 322.1,480.5 317.2,462.1 317.2,480.5 314.8,480.5 
		314.8,456.7 317.9,456.7 322.6,474.5 	"/>
	<path id="XMLID_19_" class="st1" d="M340.8,456.7h7.5c2,0,3,1,3,3v17.7c0,2-1,3-3,3h-7.5V456.7z M348.7,477v-16.9
		c0-0.5-0.1-0.8-0.2-1c-0.2-0.1-0.5-0.2-1-0.2h-4.1v19.2h4.1c0.5,0,0.8-0.1,1-0.2C348.6,477.9,348.7,477.5,348.7,477"/>
	<path id="XMLID_16_" class="st1" d="M374.8,480.5l-1-6h-4.8l-0.9,6h-2.6l3.7-23.8h4.2l4.1,23.8H374.8z M369.3,472.2h4.2l-2.2-13.6
		L369.3,472.2z"/>
	<path id="XMLID_13_" class="st1" d="M394.3,470.5v9.9h-2.6v-23.8h6.9c2,0,3,1,3,3v7.8c0,1.8-0.8,2.8-2.4,3l3.6,10H400l-3.5-9.9
		H394.3z M394.3,459v9.3h3.6c0.5,0,0.8-0.1,1-0.2c0.1-0.1,0.2-0.5,0.2-1v-6.9c0-0.5-0.1-0.8-0.2-1c-0.1-0.1-0.5-0.2-1-0.2H394.3z"/>
	<path id="XMLID_10_" class="st1" d="M417.2,456.7h7.5c2,0,3,1,3,3v17.7c0,2-1,3-3,3h-7.5V456.7z M425.1,477v-16.9
		c0-0.5-0.1-0.8-0.2-1c-0.2-0.1-0.5-0.2-1-0.2h-4.1v19.2h4.1c0.5,0,0.8-0.1,1-0.2C425,477.9,425.1,477.5,425.1,477"/>
	<path id="XMLID_4_" class="st2" d="M255.6,1.7h-79.8l-130.9,300h120.3L266.1,237l27.9,64.7h92.5L255.6,1.7z M180.9,40.5l23.4,53.7
		l-55.9,128.6l-65.7,42.2L180.9,40.5z M157.5,282.7H98.1l66.8-44.6l60.8,0.4L157.5,282.7z M174.5,215.7l41.2-96.1l41.2,96.1H174.5z
		 M194.9,22.7H242l112.8,260h-47.3L194.9,22.7z"/>
</g>
</svg>
